<svg xmlns="http://www.w3.org/2000/svg" xmlns:xlink="http://www.w3.org/1999/xlink" width="1920" zoomAndPan="magnify" viewBox="0 0 1440 599.999999" height="800" preserveAspectRatio="xMidYMid meet" version="1.2"><g id="2e75e90df4"><path style=" stroke:none;fill-rule:nonzero;fill:#e7c904;fill-opacity:1;" d="M 1021.902344 153.90625 C 1025.53125 156.964844 1028.640625 160.402344 1031.671875 164.046875 C 1034.398438 162.957031 1034.984375 162.027344 1036.253906 159.464844 C 1037.644531 158.011719 1039.019531 156.65625 1040.503906 155.3125 C 1041.121094 154.75 1041.121094 154.75 1041.746094 154.179688 C 1045.007812 151.289062 1048.320312 149.050781 1052.300781 147.242188 C 1053.152344 146.847656 1054.003906 146.453125 1054.878906 146.046875 C 1055.792969 145.6875 1056.707031 145.324219 1057.648438 144.949219 C 1058.589844 144.574219 1058.589844 144.574219 1059.554688 144.1875 C 1074.574219 138.398438 1090.132812 139.257812 1104.980469 145.386719 C 1112.636719 148.972656 1119.082031 154.132812 1124.886719 160.226562 C 1125.136719 160.984375 1125.390625 161.742188 1125.648438 162.519531 C 1126.15625 162.519531 1126.660156 162.519531 1127.179688 162.519531 C 1129.46875 165.871094 1129.46875 165.871094 1129.46875 167.867188 C 1129.976562 167.867188 1130.480469 167.867188 1131 167.867188 C 1133.511719 171.292969 1134.867188 175.378906 1136.347656 179.324219 C 1136.570312 179.914062 1136.792969 180.5 1137.023438 181.105469 C 1141.476562 193.507812 1141.007812 211.355469 1135.6875 223.339844 C 1135.402344 223.9375 1135.113281 224.539062 1134.820312 225.160156 C 1134.507812 225.839844 1134.199219 226.515625 1133.878906 227.21875 C 1132.253906 230.648438 1130.792969 233.289062 1127.941406 235.851562 C 1127.582031 236.46875 1127.21875 237.082031 1126.84375 237.714844 C 1124.460938 241.625 1120.832031 244.523438 1117.246094 247.3125 C 1116.742188 247.3125 1116.238281 247.3125 1115.71875 247.3125 C 1115.71875 247.816406 1115.71875 248.320312 1115.71875 248.839844 C 1114.046875 249.992188 1114.046875 249.992188 1111.898438 251.226562 C 1111.1875 251.636719 1110.480469 252.050781 1109.75 252.472656 C 1109.195312 252.785156 1108.644531 253.101562 1108.078125 253.421875 C 1109.324219 254.726562 1110.269531 255.664062 1111.898438 256.476562 C 1111.898438 256.980469 1111.898438 257.484375 1111.898438 258.003906 C 1113.15625 258.257812 1114.417969 258.511719 1115.71875 258.769531 C 1115.71875 259.273438 1115.71875 259.777344 1115.71875 260.296875 C 1116.332031 260.558594 1116.332031 260.558594 1116.960938 260.824219 C 1119.402344 262.171875 1121.289062 263.761719 1123.359375 265.644531 C 1123.359375 266.148438 1123.359375 266.652344 1123.359375 267.171875 C 1123.863281 267.171875 1124.367188 267.171875 1124.886719 267.171875 C 1124.886719 267.675781 1124.886719 268.179688 1124.886719 268.699219 C 1125.390625 268.699219 1125.894531 268.699219 1126.414062 268.699219 C 1129.730469 272.5 1131.96875 277.265625 1134.246094 281.734375 C 1134.636719 282.488281 1134.636719 282.488281 1135.035156 283.261719 C 1141.140625 295.523438 1141.347656 313.539062 1137.226562 326.5 C 1136.496094 328.410156 1135.691406 330.253906 1134.820312 332.101562 C 1134.5 332.78125 1134.179688 333.464844 1133.851562 334.164062 C 1130.90625 340.242188 1130.90625 340.242188 1128.707031 342.796875 C 1128.203125 342.796875 1127.699219 342.796875 1127.179688 342.796875 C 1127.097656 343.242188 1127.019531 343.6875 1126.9375 344.144531 C 1126.335938 346.109375 1125.515625 347.175781 1124.171875 348.71875 C 1123.769531 349.1875 1123.367188 349.65625 1122.957031 350.136719 C 1121.828125 351.199219 1121.828125 351.199219 1120.300781 351.199219 C 1120.300781 351.703125 1120.300781 352.207031 1120.300781 352.726562 C 1119.039062 353.507812 1117.761719 354.265625 1116.480469 355.019531 C 1115.445312 355.917969 1115.445312 355.917969 1114.390625 356.835938 C 1111.972656 358.875 1109.367188 360.292969 1106.5 361.609375 C 1105.59375 362.042969 1104.6875 362.476562 1103.753906 362.925781 C 1096.167969 366.046875 1088.417969 366.886719 1080.285156 366.8125 C 1079.382812 366.804688 1078.480469 366.796875 1077.550781 366.792969 C 1061.074219 366.472656 1047.699219 359.90625 1036.253906 348.144531 C 1034.75 346.839844 1033.214844 345.582031 1031.671875 344.324219 C 1031.320312 344.675781 1030.96875 345.027344 1030.609375 345.386719 C 1029.179688 346.816406 1027.75 348.242188 1026.320312 349.671875 C 1025.816406 350.183594 1025.3125 350.695312 1024.792969 351.222656 C 1020.503906 355.445312 1015.796875 358.574219 1010.46875 361.320312 C 1009.996094 361.574219 1009.523438 361.824219 1009.035156 362.082031 C 1001.148438 366.003906 992.710938 366.890625 984.011719 366.8125 C 983.109375 366.804688 982.207031 366.796875 981.273438 366.789062 C 968.53125 366.539062 955.167969 362.894531 946.09375 353.492188 C 945.339844 353.238281 944.582031 352.988281 943.804688 352.726562 C 943.804688 352.222656 943.804688 351.71875 943.804688 351.199219 C 943.300781 351.199219 942.796875 351.199219 942.273438 351.199219 C 931.464844 341.265625 925.316406 327.234375 924.617188 312.765625 C 924.207031 295.945312 927.382812 281.15625 938.453125 267.9375 C 939.210938 267.683594 939.96875 267.433594 940.746094 267.171875 C 940.746094 266.667969 940.746094 266.164062 940.746094 265.644531 C 941.25 265.644531 941.753906 265.644531 942.273438 265.644531 C 942.476562 265.1875 942.679688 264.730469 942.886719 264.261719 C 945.335938 259.796875 950.179688 257.320312 954.5 254.949219 C 955.003906 254.445312 955.507812 253.941406 956.027344 253.421875 C 955.578125 253.183594 955.125 252.941406 954.660156 252.695312 C 949.539062 249.921875 945.628906 246.847656 941.511719 242.726562 C 940.914062 242.300781 940.3125 241.878906 939.695312 241.4375 C 934.796875 237.125 931.863281 231.386719 929.046875 225.589844 C 928.789062 225.070312 928.53125 224.550781 928.265625 224.015625 C 922.417969 211.519531 922.351562 192.226562 926.992188 179.324219 C 929.96875 172.066406 933.960938 165.3125 939.21875 159.464844 C 939.722656 159.464844 940.226562 159.464844 940.746094 159.464844 C 940.746094 158.960938 940.746094 158.457031 940.746094 157.9375 C 941.25 157.9375 941.753906 157.9375 942.273438 157.9375 C 942.273438 157.433594 942.273438 156.929688 942.273438 156.410156 C 944.417969 154.441406 946.8125 152.785156 949.152344 151.0625 C 949.648438 150.664062 950.144531 150.265625 950.65625 149.851562 C 956.296875 145.613281 963.089844 143.835938 969.78125 141.894531 C 970.492188 141.6875 971.207031 141.480469 971.941406 141.269531 C 989.0625 137.140625 1008.359375 143.375 1021.902344 153.90625 Z M 1031.671875 235.089844 C 1030.753906 236.035156 1029.867188 237.011719 1028.996094 238 C 1028.515625 238.542969 1028.035156 239.082031 1027.539062 239.640625 C 1026.179688 241.203125 1026.179688 241.203125 1025.558594 243.492188 C 1025.054688 243.492188 1024.550781 243.492188 1024.03125 243.492188 C 1024.03125 243.996094 1024.03125 244.5 1024.03125 245.019531 C 1023.496094 245.191406 1022.957031 245.367188 1022.40625 245.542969 C 1020.214844 246.546875 1018.667969 247.785156 1016.867188 249.367188 C 1014.824219 251.011719 1012.578125 252.179688 1010.277344 253.421875 C 1012.089844 254.925781 1013.851562 256.332031 1015.886719 257.53125 C 1022.28125 261.425781 1027.421875 266.386719 1031.671875 272.519531 C 1032.847656 271.46875 1032.847656 271.46875 1033.960938 270.226562 C 1033.960938 269.722656 1033.960938 269.21875 1033.960938 268.699219 C 1034.601562 268.441406 1034.601562 268.441406 1035.253906 268.175781 C 1037.519531 266.890625 1039.019531 265.214844 1040.839844 263.351562 C 1043.414062 260.949219 1045.960938 258.804688 1049.054688 257.097656 C 1051.109375 255.953125 1052.269531 255.089844 1053.828125 253.421875 C 1053.421875 253.21875 1053.011719 253.011719 1052.59375 252.800781 C 1044.4375 248.511719 1037.472656 242.820312 1032.433594 235.089844 C 1032.183594 235.089844 1031.929688 235.089844 1031.671875 235.089844 Z M 1031.671875 235.089844 "/><path style=" stroke:none;fill-rule:nonzero;fill:#454545;fill-opacity:1;" d="M 1178.371094 145.714844 C 1197.785156 145.714844 1217.199219 145.714844 1237.203125 145.714844 C 1239.976562 149.746094 1242.75 153.78125 1245.609375 157.9375 C 1247.710938 160.667969 1247.710938 160.667969 1249.859375 163.363281 C 1251.136719 165.046875 1252.167969 166.816406 1253.25 168.632812 C 1254.273438 170.152344 1255.308594 171.664062 1256.351562 173.167969 C 1256.648438 173.59375 1256.945312 174.019531 1257.253906 174.460938 C 1259.8125 178.132812 1262.414062 181.777344 1265.019531 185.417969 C 1267.277344 188.570312 1269.519531 191.734375 1271.734375 194.917969 C 1272.808594 196.453125 1273.886719 197.988281 1274.972656 199.519531 C 1275.609375 200.425781 1276.25 201.332031 1276.886719 202.242188 C 1277.195312 202.671875 1277.5 203.105469 1277.820312 203.550781 C 1279.992188 206.652344 1279.992188 206.652344 1279.992188 208.351562 C 1280.496094 208.351562 1281 208.351562 1281.519531 208.351562 C 1282.542969 209.789062 1282.542969 209.789062 1283.761719 211.839844 C 1286.035156 215.511719 1288.453125 219.015625 1291.023438 222.484375 C 1291.382812 222.972656 1291.742188 223.457031 1292.113281 223.957031 C 1292.824219 224.921875 1293.539062 225.882812 1294.253906 226.84375 C 1295.746094 228.855469 1297.230469 230.871094 1298.710938 232.894531 C 1299.175781 233.523438 1299.640625 234.15625 1300.121094 234.808594 C 1300.964844 236.015625 1301.765625 237.253906 1302.523438 238.519531 C 1303.730469 240.527344 1305.054688 242.375 1306.445312 244.253906 C 1309.320312 248.171875 1312.101562 252.144531 1314.855469 256.148438 C 1317.226562 259.578125 1319.621094 262.992188 1322.015625 266.410156 C 1322.265625 226.578125 1322.519531 186.75 1322.777344 145.714844 C 1341.6875 145.714844 1360.601562 145.714844 1380.082031 145.714844 C 1380.082031 217.054688 1380.082031 288.394531 1380.082031 361.894531 C 1361.675781 361.894531 1343.269531 361.894531 1324.308594 361.894531 C 1321.628906 358.324219 1319.089844 354.90625 1316.667969 351.199219 C 1316.269531 350.621094 1315.871094 350.039062 1315.460938 349.441406 C 1315.039062 348.824219 1314.617188 348.207031 1314.183594 347.570312 C 1313.785156 346.992188 1313.386719 346.414062 1312.976562 345.816406 C 1312.082031 344.324219 1312.082031 344.324219 1312.082031 342.796875 C 1311.578125 342.796875 1311.074219 342.796875 1310.554688 342.796875 C 1309.425781 341.386719 1309.425781 341.386719 1308.113281 339.417969 C 1307.632812 338.699219 1307.148438 337.984375 1306.65625 337.246094 C 1305.890625 336.09375 1305.890625 336.09375 1305.109375 334.917969 C 1304.066406 333.363281 1303.019531 331.808594 1301.972656 330.253906 C 1301.472656 329.511719 1300.972656 328.765625 1300.457031 328 C 1298.480469 325.089844 1296.40625 322.265625 1294.3125 319.4375 C 1292.824219 317.375 1291.421875 315.269531 1290.019531 313.148438 C 1286.835938 308.328125 1283.480469 303.644531 1280.109375 298.957031 C 1278.433594 296.621094 1276.789062 294.265625 1275.148438 291.90625 C 1274.246094 290.617188 1273.335938 289.335938 1272.417969 288.058594 C 1271.9375 287.386719 1271.457031 286.71875 1270.964844 286.03125 C 1270.320312 285.136719 1270.320312 285.136719 1269.660156 284.226562 C 1268.507812 282.414062 1267.734375 280.644531 1267.003906 278.628906 C 1266.496094 278.628906 1265.992188 278.628906 1265.472656 278.628906 C 1264.371094 277.085938 1264.371094 277.085938 1263.085938 274.953125 C 1260.765625 271.207031 1258.296875 267.640625 1255.679688 264.09375 C 1253.765625 261.488281 1251.882812 258.867188 1250 256.238281 C 1249.527344 255.582031 1249.527344 255.582031 1249.046875 254.910156 C 1247.078125 252.15625 1245.1875 249.363281 1243.316406 246.546875 C 1242.429688 245.269531 1241.539062 243.996094 1240.640625 242.726562 C 1238.683594 239.953125 1236.796875 237.152344 1234.910156 234.324219 C 1234.660156 276.421875 1234.40625 318.519531 1234.148438 361.894531 C 1215.742188 361.894531 1197.335938 361.894531 1178.371094 361.894531 C 1178.371094 290.554688 1178.371094 219.214844 1178.371094 145.714844 Z M 1178.371094 145.714844 "/><path style=" stroke:none;fill-rule:nonzero;fill:#454545;fill-opacity:1;" d="M 36.859375 145.714844 C 63.808594 145.621094 63.808594 145.621094 91.300781 145.523438 C 96.945312 145.496094 102.589844 145.46875 108.40625 145.4375 C 115.371094 145.425781 115.371094 145.425781 118.644531 145.421875 C 120.898438 145.421875 123.15625 145.410156 125.414062 145.390625 C 138.222656 145.300781 150.453125 145.46875 162.929688 148.769531 C 164.035156 149.035156 165.136719 149.300781 166.242188 149.5625 C 171.425781 150.8125 176.160156 152.4375 180.957031 154.769531 C 182.574219 155.539062 184.160156 156.160156 185.851562 156.742188 C 196.984375 160.855469 208.3125 169.125 216.414062 177.796875 C 216.414062 178.300781 216.414062 178.804688 216.414062 179.324219 C 216.875 179.523438 217.335938 179.722656 217.808594 179.929688 C 219.59375 180.921875 220.40625 181.785156 221.613281 183.40625 C 221.996094 183.914062 222.375 184.421875 222.769531 184.945312 C 223.359375 185.753906 223.359375 185.753906 223.960938 186.582031 C 224.367188 187.136719 224.777344 187.6875 225.195312 188.257812 C 229.671875 194.394531 233.363281 200.574219 236.28125 207.589844 C 236.640625 208.371094 237 209.152344 237.367188 209.957031 C 238.914062 213.566406 239.894531 217.316406 240.914062 221.101562 C 241.109375 221.800781 241.304688 222.5 241.507812 223.222656 C 244.226562 233.226562 244.996094 242.726562 244.972656 253.039062 C 244.972656 254.007812 244.972656 254.007812 244.972656 254.992188 C 244.941406 264.722656 244.390625 273.832031 241.628906 283.214844 C 241.382812 284.117188 241.382812 284.117188 241.132812 285.039062 C 238.71875 293.886719 235.363281 301.929688 230.933594 309.949219 C 230.546875 310.664062 230.164062 311.375 229.765625 312.109375 C 226.882812 317.1875 223.230469 321.542969 219.472656 325.992188 C 218.957031 326.648438 218.441406 327.308594 217.910156 327.988281 C 215.660156 330.730469 213.027344 332.898438 210.304688 335.15625 C 209.535156 335.796875 209.535156 335.796875 208.753906 336.445312 C 192.703125 349.359375 173.492188 357.402344 153.191406 360.699219 C 152.476562 360.816406 151.765625 360.933594 151.035156 361.050781 C 115.09375 366.238281 66.625 362.65625 36.859375 362.65625 C 36.859375 291.066406 36.859375 219.476562 36.859375 145.714844 Z M 92.636719 195.367188 C 92.636719 233.9375 92.636719 272.503906 92.636719 312.242188 C 135.132812 314.304688 135.132812 314.304688 170.320312 295.789062 C 181.535156 283.9375 187.054688 268.167969 186.617188 251.894531 C 186.125 239.945312 183.363281 228.753906 177.449219 218.285156 C 176.945312 218.285156 176.441406 218.285156 175.921875 218.285156 C 175.722656 217.847656 175.527344 217.410156 175.324219 216.957031 C 174.304688 215.066406 173.132812 213.597656 171.71875 211.980469 C 171.253906 211.441406 170.789062 210.902344 170.308594 210.347656 C 169.15625 208.941406 169.15625 208.941406 167.515625 209.117188 C 167.136719 207.984375 167.136719 207.984375 166.75 206.824219 C 146.726562 190.1875 115.019531 195.367188 92.636719 195.367188 Z M 92.636719 195.367188 "/><path style=" stroke:none;fill-rule:nonzero;fill:#464646;fill-opacity:1;" d="M 267.609375 145.714844 C 320.304688 145.714844 373.003906 145.714844 427.296875 145.714844 C 427.296875 161.597656 427.296875 177.476562 427.296875 193.839844 C 393.511719 193.839844 359.722656 193.839844 324.914062 193.839844 C 324.914062 205.183594 324.914062 216.527344 324.914062 228.214844 C 357.941406 228.214844 390.972656 228.214844 425.003906 228.214844 C 425.003906 244.09375 425.003906 259.976562 425.003906 276.339844 C 391.972656 276.339844 358.945312 276.339844 324.914062 276.339844 C 324.914062 288.691406 324.914062 301.042969 324.914062 313.769531 C 358.699219 313.769531 392.488281 313.769531 427.296875 313.769531 C 427.296875 329.648438 427.296875 345.53125 427.296875 361.894531 C 374.601562 361.894531 321.902344 361.894531 267.609375 361.894531 C 267.609375 290.554688 267.609375 219.214844 267.609375 145.714844 Z M 267.609375 145.714844 "/><path style=" stroke:none;fill-rule:nonzero;fill:#454545;fill-opacity:1;" d="M 450.21875 145.714844 C 471.398438 145.714844 492.578125 145.714844 514.398438 145.714844 C 516.261719 149.898438 517.898438 153.648438 519.269531 157.9375 C 519.597656 158.945312 519.925781 159.949219 520.257812 160.957031 C 520.421875 161.46875 520.589844 161.980469 520.765625 162.507812 C 521.597656 165.007812 522.488281 167.488281 523.378906 169.96875 C 525.761719 176.644531 527.984375 183.375 530.191406 190.113281 C 531.582031 194.332031 533.042969 198.5 534.667969 202.636719 C 536.253906 206.695312 537.578125 210.78125 538.824219 214.953125 C 540.253906 219.605469 541.878906 224.191406 543.480469 228.785156 C 544.144531 230.691406 544.804688 232.597656 545.46875 234.503906 C 545.933594 235.84375 545.933594 235.84375 546.40625 237.214844 C 547.300781 239.800781 548.167969 242.398438 549.027344 244.996094 C 549.925781 247.675781 550.886719 250.332031 551.839844 252.992188 C 553.300781 257.101562 554.671875 261.207031 555.878906 265.398438 C 556.722656 268.152344 557.738281 270.84375 558.738281 273.550781 C 559.601562 275.910156 560.390625 278.292969 561.171875 280.679688 C 561.859375 282.703125 562.601562 284.699219 563.347656 286.699219 C 564.59375 290.089844 565.558594 293.441406 566.355469 296.964844 C 568.414062 294.90625 568.859375 292.574219 569.652344 289.851562 C 571.097656 285.035156 572.761719 280.371094 574.617188 275.699219 C 575.558594 273.199219 576.34375 270.6875 577.101562 268.128906 C 578.128906 264.667969 579.316406 261.457031 580.925781 258.230469 C 581.71875 256.28125 582.160156 254.3125 582.652344 252.273438 C 583.796875 248.035156 585.34375 243.910156 586.796875 239.769531 C 587.488281 237.785156 588.175781 235.800781 588.867188 233.816406 C 589.035156 233.328125 589.203125 232.84375 589.378906 232.34375 C 590.753906 228.386719 592.078125 224.414062 593.386719 220.433594 C 594.683594 216.484375 596.089844 212.617188 597.691406 208.785156 C 598.523438 206.628906 599.195312 204.457031 599.855469 202.242188 C 601.394531 197.183594 603.09375 192.191406 604.847656 187.203125 C 607.117188 180.699219 609.359375 174.1875 611.480469 167.632812 C 612.273438 165.222656 613.132812 162.894531 614.132812 160.558594 C 615.230469 157.992188 616.082031 155.453125 616.878906 152.78125 C 618.3125 148.007812 618.3125 148.007812 619.078125 145.714844 C 640.257812 145.714844 661.4375 145.714844 683.257812 145.714844 C 683.257812 149.867188 682.691406 152.277344 681.109375 155.929688 C 680.683594 156.953125 680.257812 157.976562 679.832031 159 C 679.449219 159.910156 679.066406 160.820312 678.671875 161.757812 C 678.265625 162.804688 677.867188 163.851562 677.480469 164.90625 C 676.535156 167.464844 675.554688 170.003906 674.566406 172.546875 C 672.859375 176.972656 671.246094 181.429688 669.667969 185.90625 C 667.867188 190.933594 665.9375 195.886719 663.871094 200.808594 C 661.472656 206.570312 659.335938 212.390625 657.28125 218.285156 C 655.609375 222.871094 653.828125 227.414062 652.070312 231.96875 C 651.394531 233.738281 650.726562 235.507812 650.070312 237.285156 C 649.195312 239.636719 648.257812 241.960938 647.316406 244.285156 C 644.964844 250.082031 642.820312 255.933594 640.773438 261.847656 C 639.160156 266.46875 637.429688 271.023438 635.503906 275.527344 C 634.164062 278.722656 632.972656 281.90625 631.917969 285.203125 C 630.582031 289.175781 629.003906 293.0625 627.480469 296.964844 C 625.070312 303.160156 622.738281 309.382812 620.449219 315.625 C 618.503906 320.917969 616.5 326.183594 614.484375 331.449219 C 612.539062 336.53125 610.644531 341.632812 608.777344 346.746094 C 606.921875 351.820312 604.972656 356.847656 603.03125 361.894531 C 579.332031 361.894531 555.628906 361.894531 531.210938 361.894531 C 526.640625 350.796875 522.339844 339.703125 518.335938 328.410156 C 517.351562 325.699219 516.28125 323.03125 515.191406 320.363281 C 513.863281 316.984375 512.671875 313.554688 511.457031 310.132812 C 509.96875 305.9375 508.390625 301.792969 506.726562 297.664062 C 502.640625 287.511719 498.875 277.246094 495.148438 266.953125 C 493.121094 261.355469 491.042969 255.777344 488.898438 250.222656 C 488.570312 249.363281 488.238281 248.503906 487.898438 247.617188 C 487.265625 245.980469 486.628906 244.34375 485.988281 242.710938 C 483.996094 237.613281 482.144531 232.476562 480.351562 227.308594 C 478.578125 222.207031 476.742188 217.160156 474.667969 212.171875 C 471.394531 204.136719 468.371094 196.050781 465.507812 187.859375 C 464.105469 183.90625 462.550781 180.0625 460.867188 176.222656 C 459.261719 172.53125 457.949219 168.910156 456.875 165.039062 C 456.128906 162.628906 455.082031 160.398438 454.023438 158.113281 C 452.25 154.078125 451.082031 150.03125 450.21875 145.714844 Z M 450.21875 145.714844 "/><path style=" stroke:none;fill-rule:nonzero;fill:#454545;fill-opacity:1;" d="M 784.828125 141.738281 C 785.464844 141.734375 786.105469 141.730469 786.765625 141.726562 C 788.113281 141.71875 789.460938 141.714844 790.808594 141.710938 C 792.824219 141.703125 794.839844 141.679688 796.855469 141.65625 C 805.347656 141.605469 813.253906 142.417969 821.554688 144.1875 C 822.492188 144.375 823.429688 144.558594 824.394531 144.75 C 829.265625 145.734375 833.53125 147.222656 837.992188 149.394531 C 839.648438 150.183594 841.261719 150.808594 842.996094 151.394531 C 853.171875 155.097656 864.042969 163.742188 871.21875 171.6875 C 871.21875 172.191406 871.21875 172.695312 871.21875 173.214844 C 871.707031 173.417969 872.195312 173.625 872.699219 173.835938 C 874.273438 174.742188 874.273438 174.742188 875.039062 177.035156 C 876.304688 178.3125 877.578125 179.585938 878.859375 180.851562 C 883.113281 186.429688 887.703125 192.65625 890.320312 199.1875 C 890.066406 199.941406 889.816406 200.699219 889.554688 201.476562 C 888.324219 202.0625 887.085938 202.632812 885.816406 203.128906 C 884.089844 203.816406 882.425781 204.589844 880.75 205.390625 C 880.144531 205.679688 879.535156 205.96875 878.910156 206.265625 C 877.988281 206.707031 877.988281 206.707031 877.042969 207.160156 C 873.417969 208.890625 869.792969 210.609375 866.117188 212.230469 C 863.238281 213.5 860.417969 214.859375 857.609375 216.277344 C 857.15625 216.503906 856.707031 216.730469 856.246094 216.960938 C 853.980469 218.097656 851.722656 219.25 849.472656 220.410156 C 848.25 221.035156 848.25 221.035156 847.007812 221.671875 C 846.277344 222.050781 845.550781 222.425781 844.800781 222.816406 C 842.945312 223.628906 842.945312 223.628906 840.65625 223.628906 C 840.320312 222.992188 840.320312 222.992188 839.980469 222.339844 C 837.964844 218.589844 835.785156 215.210938 833.117188 211.890625 C 832.25 210.644531 832.25 210.644531 832.25 209.117188 C 831.746094 209.117188 831.242188 209.117188 830.722656 209.117188 C 829.429688 207.863281 828.160156 206.585938 826.902344 205.296875 C 815.894531 195.097656 803.050781 192.285156 788.46875 192.722656 C 774.246094 193.570312 761.859375 200.597656 752.023438 210.644531 C 740 224.515625 735.3125 240.707031 736.074219 258.863281 C 737.351562 271.640625 741.019531 283.679688 749.179688 293.769531 C 750.496094 295.4375 750.496094 295.4375 750.496094 296.964844 C 751.15625 297.222656 751.15625 297.222656 751.832031 297.488281 C 753.550781 298.492188 753.550781 298.492188 755.03125 300.355469 C 756.703125 302.425781 758.128906 303.3125 760.429688 304.601562 C 761.074219 305.136719 761.71875 305.675781 762.386719 306.226562 C 764.136719 307.570312 765.160156 308.105469 767.304688 308.421875 C 767.304688 308.925781 767.304688 309.429688 767.304688 309.949219 C 768.273438 310.066406 768.273438 310.066406 769.261719 310.1875 C 771.890625 310.714844 771.890625 310.714844 774.277344 311.8125 C 784.863281 316.496094 800.082031 315.824219 810.855469 312.242188 C 817.816406 309.476562 827.203125 305.527344 830.722656 298.492188 C 831.226562 298.492188 831.730469 298.492188 832.25 298.492188 C 832.25 297.988281 832.25 297.484375 832.25 296.964844 C 832.5625 296.660156 832.875 296.355469 833.195312 296.042969 C 835.085938 294.121094 836.363281 291.859375 837.742188 289.5625 C 838.023438 289.101562 838.304688 288.636719 838.59375 288.160156 C 839.285156 287.023438 839.96875 285.882812 840.65625 284.742188 C 846.074219 285.582031 850.421875 287.574219 855.257812 290.089844 C 858.417969 291.734375 861.636719 293.226562 864.867188 294.71875 C 869.25 296.757812 873.496094 298.941406 877.710938 301.308594 C 880.265625 302.648438 882.890625 303.699219 885.589844 304.710938 C 887.222656 305.351562 888.761719 306.085938 890.320312 306.894531 C 888.476562 313.183594 884.832031 318.300781 881.101562 323.605469 C 880.496094 324.488281 880.496094 324.488281 879.878906 325.386719 C 879.484375 325.949219 879.09375 326.507812 878.6875 327.082031 C 878.335938 327.589844 877.984375 328.09375 877.621094 328.617188 C 876.566406 329.8125 876.566406 329.8125 874.273438 330.574219 C 874.054688 331.140625 873.832031 331.710938 873.605469 332.292969 C 871.894531 336.476562 867.847656 339.304688 864.339844 342.03125 C 863.835938 342.03125 863.332031 342.03125 862.8125 342.03125 C 862.625 342.492188 862.433594 342.953125 862.238281 343.429688 C 861.128906 345.363281 860.128906 346.058594 858.226562 347.1875 C 857.425781 347.679688 857.425781 347.679688 856.605469 348.179688 C 855.171875 348.90625 855.171875 348.90625 853.644531 348.90625 C 853.644531 349.410156 853.644531 349.917969 853.644531 350.4375 C 845.671875 354.972656 837.710938 359.128906 828.957031 361.941406 C 828.320312 362.152344 827.683594 362.359375 827.027344 362.574219 C 816.671875 365.71875 805.988281 365.964844 795.257812 365.914062 C 793.285156 365.90625 791.3125 365.914062 789.34375 365.921875 C 776.761719 365.933594 764.644531 364.875 752.835938 360.210938 C 751.714844 359.777344 750.582031 359.375 749.445312 358.992188 C 723.863281 350.316406 701.578125 330.996094 689.371094 306.894531 C 682.664062 293.113281 677.835938 277.933594 677.753906 262.519531 C 677.75 261.863281 677.746094 261.203125 677.742188 260.523438 C 677.734375 259.132812 677.730469 257.742188 677.726562 256.351562 C 677.71875 254.265625 677.695312 252.175781 677.671875 250.089844 C 677.605469 239.179688 678.867188 229.085938 682.304688 218.664062 C 682.597656 217.761719 682.597656 217.761719 682.894531 216.839844 C 687.351562 203.464844 693.789062 190.765625 703.125 180.089844 C 703.878906 179.835938 704.636719 179.585938 705.414062 179.324219 C 705.644531 178.746094 705.875 178.167969 706.113281 177.570312 C 710.824219 165.851562 731.875 155.90625 742.855469 151.0625 C 756.226562 145.382812 770.25 141.820312 784.828125 141.738281 Z M 784.828125 141.738281 "/><path style=" stroke:none;fill-rule:nonzero;fill:#70b306;fill-opacity:1;" d="M 1005.691406 252.660156 C 1006.773438 252.9375 1007.859375 253.203125 1008.949219 253.457031 C 1011.992188 254.234375 1013.289062 255.214844 1015.625 257.242188 C 1016.320312 257.558594 1017.011719 257.871094 1017.726562 258.195312 C 1023.363281 261.230469 1027.671875 266.070312 1031.671875 270.992188 C 1034.90625 268.425781 1034.90625 268.425781 1037.640625 265.359375 C 1041.410156 260.835938 1046.40625 257.730469 1051.535156 254.949219 C 1051.789062 254.699219 1052.039062 254.445312 1052.300781 254.1875 C 1057.519531 254.132812 1062.097656 255.59375 1066.96875 257.300781 C 1078.265625 261.019531 1090.015625 258.195312 1100.972656 254.800781 C 1104.464844 253.949219 1107 253.671875 1110.273438 255.238281 C 1110.808594 255.644531 1111.34375 256.054688 1111.898438 256.476562 C 1111.898438 256.980469 1111.898438 257.484375 1111.898438 258.003906 C 1113.15625 258.257812 1114.417969 258.511719 1115.71875 258.769531 C 1115.71875 259.273438 1115.71875 259.777344 1115.71875 260.296875 C 1116.332031 260.558594 1116.332031 260.558594 1116.960938 260.824219 C 1119.402344 262.171875 1121.289062 263.761719 1123.359375 265.644531 C 1123.359375 266.148438 1123.359375 266.652344 1123.359375 267.171875 C 1123.863281 267.171875 1124.367188 267.171875 1124.886719 267.171875 C 1124.886719 267.675781 1124.886719 268.179688 1124.886719 268.699219 C 1125.390625 268.699219 1125.894531 268.699219 1126.414062 268.699219 C 1129.730469 272.5 1131.96875 277.265625 1134.246094 281.734375 C 1134.636719 282.488281 1134.636719 282.488281 1135.035156 283.261719 C 1141.140625 295.523438 1141.347656 313.539062 1137.226562 326.5 C 1136.496094 328.410156 1135.691406 330.253906 1134.820312 332.101562 C 1134.339844 333.125 1134.339844 333.125 1133.851562 334.164062 C 1130.90625 340.242188 1130.90625 340.242188 1128.707031 342.796875 C 1128.203125 342.796875 1127.699219 342.796875 1127.179688 342.796875 C 1127.097656 343.242188 1127.019531 343.6875 1126.9375 344.144531 C 1126.335938 346.109375 1125.515625 347.175781 1124.171875 348.71875 C 1123.769531 349.1875 1123.367188 349.65625 1122.957031 350.136719 C 1121.828125 351.199219 1121.828125 351.199219 1120.300781 351.199219 C 1120.300781 351.703125 1120.300781 352.207031 1120.300781 352.726562 C 1119.039062 353.507812 1117.761719 354.265625 1116.480469 355.019531 C 1115.445312 355.917969 1115.445312 355.917969 1114.390625 356.835938 C 1111.972656 358.875 1109.367188 360.292969 1106.5 361.609375 C 1105.59375 362.042969 1104.6875 362.476562 1103.753906 362.925781 C 1096.167969 366.046875 1088.417969 366.886719 1080.285156 366.8125 C 1079.382812 366.804688 1078.480469 366.796875 1077.550781 366.792969 C 1061.074219 366.472656 1047.699219 359.90625 1036.253906 348.144531 C 1034.75 346.839844 1033.214844 345.582031 1031.671875 344.324219 C 1031.320312 344.675781 1030.96875 345.027344 1030.609375 345.386719 C 1029.179688 346.816406 1027.75 348.242188 1026.320312 349.671875 C 1025.566406 350.441406 1025.566406 350.441406 1024.792969 351.222656 C 1020.503906 355.445312 1015.796875 358.574219 1010.46875 361.320312 C 1009.996094 361.574219 1009.523438 361.824219 1009.035156 362.082031 C 1001.148438 366.003906 992.710938 366.890625 984.011719 366.8125 C 983.109375 366.804688 982.207031 366.796875 981.273438 366.789062 C 968.53125 366.539062 955.167969 362.894531 946.09375 353.492188 C 945.339844 353.238281 944.582031 352.988281 943.804688 352.726562 C 943.804688 352.222656 943.804688 351.71875 943.804688 351.199219 C 943.300781 351.199219 942.792969 351.199219 942.273438 351.199219 C 931.464844 341.265625 925.316406 327.234375 924.617188 312.765625 C 924.207031 295.945312 927.382812 281.15625 938.453125 267.9375 C 939.210938 267.683594 939.96875 267.433594 940.746094 267.171875 C 940.746094 266.667969 940.746094 266.164062 940.746094 265.644531 C 941.25 265.644531 941.753906 265.644531 942.273438 265.644531 C 942.476562 265.1875 942.679688 264.730469 942.886719 264.261719 C 946.15625 258.300781 953.355469 255.183594 959.542969 253.261719 C 962.15625 252.402344 964.679688 251.335938 967.214844 250.265625 C 979.148438 245.878906 994.183594 248.207031 1005.691406 252.660156 Z M 1005.691406 252.660156 "/><path style=" stroke:none;fill-rule:nonzero;fill:#e9631c;fill-opacity:1;" d="M 1115.71875 151.824219 C 1124.5 159.066406 1124.5 159.066406 1125.648438 162.519531 C 1126.15625 162.519531 1126.660156 162.519531 1127.179688 162.519531 C 1129.46875 165.871094 1129.46875 165.871094 1129.46875 167.867188 C 1129.976562 167.867188 1130.480469 167.867188 1131 167.867188 C 1133.511719 171.292969 1134.867188 175.378906 1136.347656 179.324219 C 1136.570312 179.914062 1136.792969 180.5 1137.023438 181.105469 C 1141.476562 193.507812 1141.007812 211.355469 1135.6875 223.339844 C 1135.402344 223.9375 1135.113281 224.539062 1134.820312 225.160156 C 1134.507812 225.839844 1134.199219 226.515625 1133.878906 227.21875 C 1132.253906 230.648438 1130.792969 233.289062 1127.941406 235.851562 C 1127.578125 236.46875 1127.21875 237.082031 1126.84375 237.714844 C 1124.460938 241.625 1120.832031 244.523438 1117.246094 247.3125 C 1116.742188 247.3125 1116.238281 247.3125 1115.71875 247.3125 C 1115.71875 247.816406 1115.71875 248.320312 1115.71875 248.839844 C 1111.214844 252.855469 1105.199219 254.539062 1099.578125 256.335938 C 1098.855469 256.566406 1098.136719 256.796875 1097.394531 257.035156 C 1087.582031 260.050781 1077.566406 260.585938 1067.582031 258.003906 C 1067.066406 257.878906 1066.554688 257.75 1066.023438 257.621094 C 1052.578125 254.265625 1042.144531 248.824219 1033.246094 237.761719 C 1032.910156 237.34375 1032.570312 236.925781 1032.222656 236.496094 C 1031.671875 235.089844 1031.671875 235.089844 1032.171875 233.324219 C 1033.351562 230.960938 1034.582031 228.632812 1035.824219 226.304688 C 1038.433594 221.238281 1039.886719 216.277344 1040.839844 210.644531 C 1040.9375 210.105469 1041.039062 209.570312 1041.140625 209.015625 C 1043.195312 195.914062 1040.921875 183.484375 1034.605469 171.984375 C 1033.449219 169.859375 1032.40625 167.875 1031.671875 165.574219 C 1032.339844 163.808594 1032.339844 163.808594 1033.199219 162.519531 C 1033.703125 162.519531 1034.207031 162.519531 1034.726562 162.519531 C 1034.890625 162.101562 1035.054688 161.683594 1035.226562 161.25 C 1036.605469 158.859375 1038.476562 157.148438 1040.503906 155.3125 C 1040.914062 154.9375 1041.324219 154.566406 1041.746094 154.179688 C 1045.007812 151.289062 1048.320312 149.050781 1052.300781 147.242188 C 1053.152344 146.847656 1054.003906 146.453125 1054.878906 146.046875 C 1055.792969 145.6875 1056.707031 145.324219 1057.648438 144.949219 C 1058.277344 144.699219 1058.90625 144.445312 1059.554688 144.1875 C 1078.207031 137 1099.65625 139.707031 1115.71875 151.824219 Z M 1115.71875 151.824219 "/><path style=" stroke:none;fill-rule:nonzero;fill:#7708fe;fill-opacity:1;" d="M 1005.691406 252.660156 C 1006.773438 252.9375 1007.859375 253.203125 1008.949219 253.457031 C 1011.992188 254.234375 1013.289062 255.214844 1015.625 257.242188 C 1016.320312 257.558594 1017.011719 257.871094 1017.726562 258.195312 C 1023.941406 261.542969 1028.363281 266.867188 1032.433594 272.519531 C 1032.148438 273.019531 1031.863281 273.519531 1031.566406 274.035156 C 1022.738281 289.773438 1019.785156 306.183594 1023.878906 323.984375 C 1025.511719 328.933594 1027.925781 335.996094 1031.671875 339.742188 C 1032.050781 341.746094 1032.050781 341.746094 1031.671875 344.324219 C 1030.089844 346.339844 1028.230469 347.972656 1026.320312 349.671875 C 1025.816406 350.179688 1025.3125 350.683594 1024.792969 351.207031 C 1020.527344 355.453125 1015.796875 358.574219 1010.46875 361.320312 C 1009.996094 361.574219 1009.523438 361.824219 1009.035156 362.082031 C 1001.148438 366.003906 992.710938 366.890625 984.011719 366.8125 C 983.109375 366.804688 982.207031 366.796875 981.273438 366.789062 C 968.53125 366.539062 955.167969 362.894531 946.09375 353.492188 C 945.339844 353.238281 944.582031 352.988281 943.804688 352.726562 C 943.804688 352.222656 943.804688 351.71875 943.804688 351.199219 C 943.300781 351.199219 942.792969 351.199219 942.273438 351.199219 C 931.464844 341.265625 925.316406 327.234375 924.617188 312.765625 C 924.207031 295.945312 927.382812 281.15625 938.453125 267.9375 C 939.210938 267.683594 939.96875 267.433594 940.746094 267.171875 C 940.746094 266.667969 940.746094 266.164062 940.746094 265.644531 C 941.25 265.644531 941.753906 265.644531 942.273438 265.644531 C 942.476562 265.1875 942.679688 264.730469 942.886719 264.261719 C 946.15625 258.300781 953.355469 255.183594 959.542969 253.261719 C 962.15625 252.402344 964.679688 251.335938 967.214844 250.265625 C 979.148438 245.878906 994.183594 248.207031 1005.691406 252.660156 Z M 1005.691406 252.660156 "/><path style=" stroke:none;fill-rule:nonzero;fill:#454545;fill-opacity:1;" d="M 215.652344 390.921875 C 227.113281 390.921875 227.113281 390.921875 229.886719 393.085938 C 230.875 394.53125 230.875 394.53125 231.792969 396.125 C 232.324219 396.933594 232.324219 396.933594 232.867188 397.753906 C 233.628906 398.914062 234.371094 400.085938 235.101562 401.261719 C 236.78125 403.9375 238.582031 406.523438 240.378906 409.121094 C 242.03125 411.515625 243.65625 413.929688 245.273438 416.347656 C 246.234375 417.761719 246.234375 417.761719 247.742188 419.183594 C 247.996094 409.859375 248.246094 400.53125 248.507812 390.921875 C 252.289062 390.921875 256.070312 390.921875 259.96875 390.921875 C 259.96875 407.054688 259.96875 423.1875 259.96875 439.808594 C 248.507812 439.808594 248.507812 439.808594 245.589844 437.339844 C 244.851562 436.214844 244.152344 435.0625 243.492188 433.890625 C 242.691406 432.636719 241.894531 431.386719 241.09375 430.136719 C 240.6875 429.476562 240.285156 428.8125 239.871094 428.132812 C 238.085938 425.28125 236.148438 422.550781 234.199219 419.808594 C 232.074219 416.8125 229.976562 413.796875 227.875 410.78125 C 227.625 420.363281 227.371094 429.941406 227.113281 439.808594 C 223.332031 439.808594 219.546875 439.808594 215.652344 439.808594 C 215.652344 423.675781 215.652344 407.542969 215.652344 390.921875 Z M 215.652344 390.921875 "/><path style=" stroke:none;fill-rule:nonzero;fill:#454545;fill-opacity:1;" d="M 152.734375 394.695312 C 157.363281 398.667969 157.363281 398.667969 158.347656 401.617188 C 157.019531 402.425781 155.679688 403.21875 154.335938 404.003906 C 153.589844 404.445312 152.847656 404.890625 152.078125 405.347656 C 149.941406 406.199219 149.941406 406.199219 148.207031 405.644531 C 146.886719 404.671875 146.886719 404.671875 145.789062 403.527344 C 143.414062 401.246094 141.085938 400.882812 137.859375 400.566406 C 133.339844 400.695312 129.851562 402.570312 126.734375 405.769531 C 123.800781 410.394531 123.351562 414.566406 123.964844 419.949219 C 125.207031 423.992188 127.175781 426.898438 130.839844 429.117188 C 135.976562 431.148438 139.824219 430.691406 144.929688 429.019531 C 145.898438 428.3125 145.898438 428.3125 146.886719 427.589844 C 147.136719 425.824219 147.390625 424.058594 147.648438 422.242188 C 143.363281 422.242188 139.078125 422.242188 134.660156 422.242188 C 134.660156 419.214844 134.660156 416.191406 134.660156 413.074219 C 142.476562 413.074219 150.292969 413.074219 158.347656 413.074219 C 159.347656 431.28125 159.347656 431.28125 156.769531 435.535156 C 154.53125 437.191406 152.578125 438.152344 149.941406 439.046875 C 148.859375 439.460938 148.859375 439.460938 147.753906 439.886719 C 139.660156 442.53125 131.210938 441.851562 123.539062 438.089844 C 117.964844 434.644531 113.933594 429.871094 112.101562 423.519531 C 110.636719 415.246094 111.285156 407.289062 115.75 400.074219 C 119.480469 395.210938 125.433594 391.511719 131.464844 390.347656 C 139.25 389.457031 146.238281 389.941406 152.734375 394.695312 Z M 152.734375 394.695312 "/><path style=" stroke:none;fill-rule:nonzero;fill:#454545;fill-opacity:1;" d="M 179.742188 390.921875 C 184.28125 390.921875 188.816406 390.921875 193.492188 390.921875 C 195.492188 396.070312 197.488281 401.21875 199.488281 406.367188 C 200.164062 408.117188 200.84375 409.863281 201.519531 411.609375 C 203.125 415.75 204.730469 419.890625 206.335938 424.03125 C 207.328125 426.597656 208.328125 429.160156 209.332031 431.722656 C 209.679688 432.617188 210.03125 433.507812 210.390625 434.429688 C 210.675781 435.160156 210.964844 435.890625 211.257812 436.640625 C 211.832031 438.28125 211.832031 438.28125 211.832031 439.808594 C 207.796875 439.808594 203.761719 439.808594 199.605469 439.808594 C 198.851562 437.289062 198.09375 434.769531 197.3125 432.171875 C 190.253906 432.421875 183.195312 432.675781 175.921875 432.933594 C 174.910156 435.203125 173.902344 437.472656 172.863281 439.808594 C 168.828125 439.808594 164.796875 439.808594 160.640625 439.808594 C 163.960938 430.9375 167.300781 422.070312 170.667969 413.210938 C 171.214844 411.769531 171.757812 410.328125 172.304688 408.886719 C 173.105469 406.769531 173.90625 404.65625 174.710938 402.539062 C 175.074219 401.582031 175.074219 401.582031 175.441406 400.601562 C 175.671875 400 175.902344 399.398438 176.140625 398.777344 C 176.335938 398.253906 176.535156 397.730469 176.738281 397.191406 C 177.636719 395.054688 178.703125 392.992188 179.742188 390.921875 Z M 185.851562 402.378906 C 184.707031 405.546875 183.558594 408.714844 182.414062 411.878906 C 182.085938 412.785156 181.757812 413.691406 181.421875 414.621094 C 181.109375 415.480469 180.800781 416.339844 180.480469 417.226562 C 180.191406 418.019531 179.90625 418.816406 179.609375 419.636719 C 178.933594 421.273438 178.933594 421.273438 178.976562 422.242188 C 183.765625 422.242188 188.558594 422.242188 193.492188 422.242188 C 192.683594 418.191406 191.460938 414.480469 190.101562 410.589844 C 189.746094 409.535156 189.746094 409.535156 189.378906 408.457031 C 189.03125 407.449219 189.03125 407.449219 188.671875 406.425781 C 188.460938 405.8125 188.25 405.203125 188.035156 404.574219 C 187.496094 403 187.496094 403 185.851562 402.378906 Z M 185.851562 402.378906 "/><path style=" stroke:none;fill-rule:nonzero;fill:#464646;fill-opacity:1;" d="M 55.960938 390.921875 C 59.746094 390.921875 63.527344 390.921875 67.421875 390.921875 C 67.421875 404.03125 67.421875 417.136719 67.421875 430.644531 C 73.980469 430.644531 80.535156 430.644531 87.289062 430.644531 C 87.289062 433.667969 87.289062 436.695312 87.289062 439.808594 C 76.953125 439.808594 66.613281 439.808594 55.960938 439.808594 C 55.960938 423.675781 55.960938 407.542969 55.960938 390.921875 Z M 55.960938 390.921875 "/><path style=" stroke:none;fill-rule:nonzero;fill:#464646;fill-opacity:1;" d="M 36.097656 390.921875 C 39.878906 390.921875 43.660156 390.921875 47.558594 390.921875 C 47.558594 407.054688 47.558594 423.1875 47.558594 439.808594 C 43.777344 439.808594 39.992188 439.808594 36.097656 439.808594 C 36.097656 423.675781 36.097656 407.542969 36.097656 390.921875 Z M 36.097656 390.921875 "/><path style=" stroke:none;fill-rule:nonzero;fill:#454545;fill-opacity:1;" d="M 94.164062 390.921875 C 97.695312 390.921875 101.226562 390.921875 104.863281 390.921875 C 104.863281 407.054688 104.863281 423.1875 104.863281 439.808594 C 101.332031 439.808594 97.804688 439.808594 94.164062 439.808594 C 94.164062 423.675781 94.164062 407.542969 94.164062 390.921875 Z M 94.164062 390.921875 "/></g></svg>